<?xml version="1.0" standalone="no"?>
<!DOCTYPE svg PUBLIC "-//W3C//DTD SVG 20010904//EN"
 "http://www.w3.org/TR/2001/REC-SVG-20010904/DTD/svg10.dtd">
<svg version="1.0" xmlns="http://www.w3.org/2000/svg"
 width="512.000000pt" height="512.000000pt" viewBox="0 0 512.000000 512.000000"
 preserveAspectRatio="xMidYMid meet">

<g transform="translate(0.000000,512.000000) scale(0.100000,-0.100000)"
fill="#000000" stroke="none">
<path d="M4011 4529 c-213 -42 -496 -215 -834 -511 -66 -56 -138 -119 -160
-139 l-42 -35 -850 302 c-550 196 -864 303 -890 304 -38 0 -46 -6 -217 -178
-176 -175 -178 -178 -178 -221 0 -35 6 -49 33 -75 17 -17 307 -243 642 -500
336 -258 616 -474 623 -481 11 -10 0 -27 -54 -91 -174 -204 -381 -475 -504
-659 -29 -44 -54 -81 -54 -82 -1 -1 -168 22 -371 52 -204 30 -382 55 -397 55
-56 0 -82 -41 -132 -211 -51 -173 -55 -215 -27 -246 11 -11 171 -128 357 -259
313 -221 341 -243 389 -309 28 -38 142 -199 254 -356 190 -269 225 -309 266
-309 27 0 330 91 353 106 55 36 55 47 -4 444 -29 201 -54 370 -54 376 0 6 46
41 103 79 138 92 412 298 581 439 77 64 143 115 147 114 4 -2 215 -273 469
-603 551 -716 526 -684 558 -696 54 -21 80 -3 254 169 112 111 171 177 179
200 10 31 -10 92 -296 898 l-307 865 46 52 c308 347 458 550 557 752 70 144
92 235 87 354 -5 122 -35 189 -122 277 -114 114 -246 154 -405 123z m187 -215
c42 -17 97 -67 117 -104 54 -103 0 -292 -145 -515 -362 -552 -1368 -1513
-2061 -1967 -141 -92 -159 -112 -159 -172 0 -19 22 -186 50 -372 27 -186 48
-339 47 -340 -1 -1 -32 -11 -69 -22 l-67 -20 -231 328 -231 327 -311 219
c-171 120 -317 224 -325 230 -13 9 -13 18 3 73 9 35 23 65 30 68 7 3 169 -18
358 -46 190 -28 359 -51 374 -51 44 0 73 29 158 158 133 203 320 447 533 697
154 181 834 878 989 1014 314 274 552 435 730 492 71 22 161 24 210 3z"/>
</g>
</svg>
