<?xml version="1.0" standalone="no"?>
<!DOCTYPE svg PUBLIC "-//W3C//DTD SVG 20010904//EN"
 "http://www.w3.org/TR/2001/REC-SVG-20010904/DTD/svg10.dtd">
<svg version="1.0" xmlns="http://www.w3.org/2000/svg"
 width="512.000000pt" height="512.000000pt" viewBox="0 0 512.000000 512.000000"
 preserveAspectRatio="xMidYMid meet">

<g transform="translate(0.000000,512.000000) scale(0.100000,-0.100000)"
fill="#000000" stroke="none">
<path d="M2472 5101 c-65 -23 -117 -70 -148 -136 l-24 -50 0 -2007 c0 -1105
-1 -2008 -3 -2008 -1 0 -256 254 -566 564 -374 374 -580 573 -610 589 -133 72
-291 20 -360 -117 -30 -61 -31 -159 -2 -219 14 -29 274 -295 843 -864 800
-799 825 -822 877 -837 73 -21 109 -20 178 5 55 20 97 60 870 833 891 890 856
849 856 971 0 187 -180 308 -358 241 -44 -16 -121 -89 -627 -594 l-578 -576
-2 2019 -3 2020 -22 41 c-31 59 -93 110 -154 128 -67 20 -101 20 -167 -3z"/>
</g>
</svg>
