<?xml version="1.0" standalone="no"?>
<!DOCTYPE svg PUBLIC "-//W3C//DTD SVG 20010904//EN"
 "http://www.w3.org/TR/2001/REC-SVG-20010904/DTD/svg10.dtd">
<svg version="1.0" xmlns="http://www.w3.org/2000/svg"
 width="512.000000pt" height="512.000000pt" viewBox="0 0 512.000000 512.000000"
 preserveAspectRatio="xMidYMid meet">

<g transform="translate(0.000000,512.000000) scale(0.100000,-0.100000)"
fill="#000000" stroke="none">
<path d="M0 2560 l0 -2560 2560 0 2560 0 0 2560 0 2560 -2560 0 -2560 0 0
-2560z m4720 0 l0 -2160 -2160 0 -2160 0 0 2160 0 2160 2160 0 2160 0 0 -2160z"/>
<path d="M1925 3060 l-500 -500 503 -502 502 -503 142 143 143 142 -360 360
-360 360 360 360 360 360 -140 140 c-77 77 -142 140 -145 140 -3 0 -230 -225
-505 -500z"/>
<path d="M2765 3060 l-500 -500 503 -502 502 -503 142 143 143 142 -360 360
-360 360 360 360 360 360 -140 140 c-77 77 -142 140 -145 140 -3 0 -230 -225
-505 -500z"/>
</g>
</svg>
